<svg xmlns="http://www.w3.org/2000/svg" version="1.1" xmlns:xlink="http://www.w3.org/1999/xlink" xmlns:svgjs="http://svgjs.dev/svgjs" width="100%" height="100%" viewBox="0 0 1000 600"><rect width="1000" height="600" x="0" y="0" fill="#ffffff"/><g><circle r="166.66666666666666" cx="282.4402414957682" cy="304.6624787329572" fill="#677d6a" transform="matrix(1.0796935631442808,0,0,1.0796935631442806,0,-28.94211889646334)"/><path d="M144.98001802664376 302.8489296621881L144.98001802664376 302.8489296621881Q143.45281473253195 302.8489296621881 143.45281473253195 301.48876422836975L143.45281473253195 301.48876422836975Q143.45281473253195 301.32172636807627 143.52440238694345 301.13082595631226Q143.61985259282542 300.9637880960188 143.7868904531189 300.62971237543184L143.7868904531189 300.62971237543184L143.7868904531189 300.46267451513836Q143.7868904531189 299.60362266220045 144.31186658546983 298.38663253720506L144.31186658546983 298.38663253720506Q147.2230978648705 291.18014199311494 149.46617770309723 278.62843991963337L149.46617770309723 278.62843991963337Q149.9672912839777 275.7172086402328 149.9672912839777 269.8708835299609L149.9672912839777 269.8708835299609Q149.9672912839777 267.81870410349813 149.37072749721526 263.5234448388087Q148.77416371045283 259.22818557411915 148.77416371045283 257.1521435961859L148.77416371045283 257.1521435961859Q148.77416371045283 255.95901602266105 150.13432914427116 255.43403989031012L150.13432914427116 255.43403989031012L157.6987579604188 253.38186046384737Q160.27591351923246 247.53553535357554 166.28927648979777 247.53553535357554L166.28927648979777 247.53553535357554Q168.86643204861147 247.53553535357554 168.00738019567356 249.5877147800383L168.00738019567356 249.5877147800383Q170.08342217360683 248.7286629271004 171.10951188683822 248.22754934621997Q172.1356016000696 247.70257321386904 172.1356016000696 247.70257321386904L172.1356016000696 247.70257321386904Q172.46967732065656 247.70257321386904 172.46967732065656 248.22754934621997L172.46967732065656 248.22754934621997Q172.46967732065656 249.7786151918023 166.9812904824422 252.164870338852L166.9812904824422 252.164870338852Q164.07005920304152 259.0372851623552 160.013425453057 269.44135760349195Q155.98065425454297 279.84543004462876 150.6593052766221 293.92433541222215L150.6593052766221 293.92433541222215Q155.98065425454297 287.9109724416568 159.8463875927635 283.0907370446164Q163.71212093098407 278.2943641990464 166.28927648979777 274.8581567872949L166.28927648979777 274.8581567872949Q168.17441805596707 271.42194937554325 171.44358760742517 266.3392259123274Q174.71275715888328 261.2803650005819 179.00801642357277 254.7420258976657L179.00801642357277 254.7420258976657Q181.418134122093 251.66375675797156 186.21450696766294 251.66375675797156L186.21450696766294 251.66375675797156Q191.03474236470336 251.66375675797156 191.03474236470336 255.43403989031012L191.03474236470336 255.43403989031012Q191.03474236470336 256.98510573589243 187.07355882060082 266.9596522505602L187.07355882060082 266.9596522505602Q182.2771859750309 278.79547777992684 182.2771859750309 279.4874917725713L182.2771859750309 279.4874917725713Q186.7394831000139 275.5501707799392 190.7722542985279 270.6344851770168Q194.80502549704192 265.74266212556495 198.4321333205575 260.08723742705706L198.4321333205575 260.08723742705706Q199.10028476173144 258.8702473020617 199.79229875437585 258.8702473020617L199.79229875437585 258.8702473020617Q200.31727488672678 258.8702473020617 200.31727488672678 259.7292991549996L200.31727488672678 259.7292991549996Q200.31727488672678 261.97237899322636 191.20178022499687 274.5002185152374L191.20178022499687 274.5002185152374Q188.45758680588966 278.2943641990464 185.54635552648904 282.064647331385Q182.61126169561786 285.858793015194 179.7000304162172 289.6290761475326L179.7000304162172 289.6290761475326Q179.17505428386625 290.4881280004705 177.45695057799045 290.4881280004705L177.45695057799045 290.4881280004705Q176.2638230044656 290.4881280004705 176.2638230044656 289.29500042694565L176.2638230044656 289.29500042694565Q176.2638230044656 288.43594857400774 176.76493658534605 286.19286873578096Q177.28991271769698 283.9497888975543 178.1489645706349 280.1795057652157L178.1489645706349 280.1795057652157L180.89315798974206 269.34590739760995Q181.5851719823865 266.2676382579159 181.91924770297345 263.5234448388087Q182.2771859750309 260.75538886823097 182.2771859750309 258.36913372118124L182.2771859750309 258.36913372118124Q176.2638230044656 267.46076583144077 166.45631435009125 278.79547777992684L166.45631435009125 278.79547777992684L149.46617770309723 298.2195946769116Q148.9412015707463 302.8489296621881 144.98001802664376 302.8489296621881ZM219.71752923224102 300.27177410337436L219.71752923224102 300.27177410337436Q210.26795884992413 300.27177410337436 204.94660987200325 287.7439345813633L204.94660987200325 287.7439345813633Q200.65135060731376 278.12732633875294 200.65135060731376 267.2937279711472L200.65135060731376 267.2937279711472Q200.65135060731376 260.94628927999497 202.0353785926026 257.84415758883034L202.0353785926026 257.84415758883034Q203.06146830583396 255.95901602266105 207.35672757052345 255.95901602266105L207.35672757052345 255.95901602266105Q209.07483127639927 255.95901602266105 209.40890699698622 256.81806787559896L209.40890699698622 256.81806787559896Q209.07483127639927 256.81806787559896 208.5498551440483 260.421313147644L208.5498551440483 260.421313147644Q208.04874156316788 263.6904826991022 208.04874156316788 267.62780369173424L208.04874156316788 267.62780369173424Q208.04874156316788 276.4092226328771 210.95997284256853 285.50085474313664L210.95997284256853 285.50085474313664Q215.08819424696458 297.3605428239737 222.4855852028187 297.3605428239737L222.4855852028187 297.3605428239737Q223.67871277634356 297.3605428239737 225.65930454839483 296.59694117691777Q227.6398963204461 295.80947697839144 228.49894817338398 295.80947697839144L228.49894817338398 295.80947697839144Q229.3580000263219 295.80947697839144 229.3580000263219 296.3344531107423L229.3580000263219 296.3344531107423Q229.3580000263219 297.6946185445606 225.39681648221938 299.0786465298495L225.39681648221938 299.0786465298495Q221.79357121017426 300.27177410337436 219.71752923224102 300.27177410337436ZM152.71148470308486 266.9596522505602L152.71148470308486 266.9596522505602Q153.57053655602277 264.02455841968913 154.62048882072463 261.2803650005819Q155.64657853395602 258.5361715814747 156.50563038689393 256.29309174324806L156.50563038689393 256.29309174324806L151.85243285014695 257.84415758883034Q152.21037112220444 260.08723742705706 152.47285918837989 262.3064547138133Q152.71148470308486 264.5495345520401 152.71148470308486 266.9596522505602ZM230.21705187925977 302.34781608130766L230.21705187925977 302.34781608130766Q228.30804776162 302.34781608130766 228.30804776162 301.32172636807627L228.30804776162 301.32172636807627Q228.30804776162 295.117462985747 233.29532101895393 285.50085474313664L233.29532101895393 285.50085474313664Q239.47572184981271 273.474128802006 240.52567411451457 269.8708835299609L240.52567411451457 269.8708835299609Q242.2437778203904 264.02455841968913 242.2437778203904 255.43403989031012L242.2437778203904 255.43403989031012Q241.71880168803943 257.1521435961859 240.00069798216364 260.421313147644Q238.28259427628785 263.6904826991022 235.37136299688717 268.67775595643604L235.37136299688717 268.67775595643604Q232.6033070263095 273.474128802006 230.45567739396478 276.6478481475822Q228.30804776162 279.84543004462876 226.94788232780166 281.73057161079805L226.94788232780166 281.73057161079805Q226.94788232780166 281.8976094710915 226.5899440557442 281.8976094710915L226.5899440557442 281.8976094710915Q225.73089220280633 281.8976094710915 225.73089220280633 281.2055954784471L225.73089220280633 281.2055954784471L230.8852033204337 272.44803908877464Q235.18046258512322 265.2415485446845 237.7576181439369 259.13273536823715Q240.3347737027506 253.0239221917899 241.55176382774596 248.22754934621997L241.55176382774596 248.22754934621997Q242.57785354097734 243.76525222123698 245.67998523214197 243.76525222123698L245.67998523214197 243.76525222123698Q248.75825437183613 243.76525222123698 248.75825437183613 250.97174276532715L248.75825437183613 250.97174276532715Q248.75825437183613 254.7420258976657 247.73216465860475 260.421313147644Q246.70607494537336 266.1006003976223 244.29595724685316 273.474128802006L244.29595724685316 273.474128802006L237.089466702763 295.9765148386849Q243.43690539391525 291.18014199311494 249.35481815859856 284.9997411622562Q255.29659347475234 278.79547777992684 260.09296632032226 270.7299353828988L260.09296632032226 270.7299353828988L261.1429185850242 269.011831677023Q263.0280601511935 256.46012960354153 265.7722535703006 253.21482260355387L265.7722535703006 253.21482260355387Q266.46426756294505 251.99783247855854 268.87438526146525 251.99783247855854L268.87438526146525 251.99783247855854Q272.47763053351036 251.99783247855854 272.47763053351036 253.8829740447278L272.47763053351036 253.8829740447278Q272.47763053351036 259.0372851623552 269.2084609820522 263.3325444270447L269.2084609820522 263.3325444270447Q265.43817784971367 276.2183222211132 265.43817784971367 288.43594857400774L265.43817784971367 288.43594857400774Q265.43817784971367 296.66852883132924 270.59248896734107 296.66852883132924L270.59248896734107 296.66852883132924Q273.16964452615474 296.66852883132924 276.6058519379063 293.7572975519287L276.6058519379063 293.7572975519287Q280.04205934965796 290.82220372105746 279.85115893789396 290.82220372105746L279.85115893789396 290.82220372105746Q280.3761350702449 290.82220372105746 280.3761350702449 291.8721559857594L280.3761350702449 291.8721559857594L280.3761350702449 292.20623170634633Q274.52980995997314 300.46267451513836 267.3233194158829 300.46267451513836L267.3233194158829 300.46267451513836Q259.9259284600288 300.46267451513836 259.9259284600288 287.7439345813633L259.9259284600288 287.7439345813633Q259.9259284600288 284.64180289019873 260.18841652620426 281.0385576181536Q260.45090459237974 277.4353123461085 260.7849803129667 273.14005308141907L260.7849803129667 273.14005308141907Q254.27050376152096 285.50085474313664 239.30868398951924 297.1935049636802L239.30868398951924 297.1935049636802Q238.44963213658133 297.88551895632463 236.898566290999 299.0786465298495Q235.37136299688717 300.27177410337436 233.4623588792474 301.6558020886632L233.4623588792474 301.6558020886632Q232.6033070263095 302.34781608130766 230.21705187925977 302.34781608130766ZM299.1082379745852 243.76525222123698L299.1082379745852 243.76525222123698Q295.67203056283364 243.76525222123698 295.67203056283364 240.13814439772142L295.67203056283364 240.13814439772142Q295.67203056283364 238.42004069184563 297.81966019517836 235.9383353389139Q299.96728982752313 233.4566299859822 301.68539353339895 232.5975781330443L301.68539353339895 232.5975781330443Q307.8657943642577 229.66248430217314 309.05892193778254 229.66248430217314L309.05892193778254 229.66248430217314Q309.5838980701335 229.66248430217314 309.5838980701335 230.0204225742306L309.5838980701335 230.0204225742306Q309.5838980701335 230.52153615511102 305.622714526031 234.98383328009402L305.622714526031 234.98383328009402Q305.288638805444 235.34177155215147 303.0455589672173 240.3290448094854L303.0455589672173 240.3290448094854Q301.160417401048 243.76525222123698 299.1082379745852 243.76525222123698ZM288.7996157393304 298.911608669556L288.7996157393304 298.911608669556Q280.04205934965796 298.911608669556 280.04205934965796 290.15405227988356L280.04205934965796 290.15405227988356Q280.04205934965796 283.61571317696735 283.47826676140954 273.6411666622995L283.47826676140954 273.6411666622995L280.3761350702449 278.4614020593399Q278.1330552320182 282.2316851916785 277.2740033790803 282.2316851916785L277.2740033790803 282.2316851916785Q276.93992765849333 282.2316851916785 276.93992765849333 281.73057161079805L276.93992765849333 281.73057161079805Q276.93992765849333 280.3465436255092 277.9660173717247 279.1534160519843L277.9660173717247 279.1534160519843Q282.09423877612073 273.474128802006 287.0815120334546 262.83143084616427L287.0815120334546 262.83143084616427Q287.5826256143351 261.4474028608754 288.53712767315494 259.3952234344126Q289.49162973197485 257.31918145647944 290.8517951657932 254.7420258976657L290.8517951657932 254.7420258976657Q291.7108470187311 253.21482260355387 295.14705443048274 253.21482260355387L295.14705443048274 253.21482260355387Q298.08214826135384 253.21482260355387 298.08214826135384 254.9329263094297L298.08214826135384 254.9329263094297Q298.08214826135384 256.81806787559896 296.364044555478 260.08723742705706L296.364044555478 260.08723742705706Q294.81297870989573 263.5234448388087 293.4289507246069 264.02455841968913L293.4289507246069 264.02455841968913Q284.5043564746409 281.8976094710915 284.5043564746409 290.32109014017703L284.5043564746409 290.32109014017703Q284.5043564746409 295.9765148386849 288.2746396069795 295.9765148386849L288.2746396069795 295.9765148386849Q294.4550404378383 295.9765148386849 301.8524313936924 287.0519205887189L301.8524313936924 287.0519205887189Q309.5838980701335 278.12732633875294 309.41686020984 278.12732633875294L309.41686020984 278.12732633875294Q309.750935930427 278.12732633875294 309.750935930427 278.62843991963337L309.750935930427 278.62843991963337Q309.750935930427 278.79547777992684 309.41686020984 279.84543004462876L309.41686020984 279.84543004462876Q307.8657943642577 282.58962346373596 305.5511268716195 285.42926708872506Q303.23645937898124 288.24504816224373 300.3013655481101 291.3471798534084L300.3013655481101 291.3471798534084Q292.7369367319625 298.911608669556 288.7996157393304 298.911608669556ZM279.6841210776005 379.66248284571856L279.6841210776005 379.66248284571856Q247.89920251889822 379.66248284571856 247.89920251889822 360.5963042207913L247.89920251889822 360.5963042207913Q247.89920251889822 359.379314095796 247.99465272478022 358.25777417668263Q248.0662403791917 357.16009680903977 248.25714079095567 355.9431066840444L248.25714079095567 355.9431066840444Q249.617306224774 349.4286301325986 257.5158107615086 340.14609761057517L257.5158107615086 340.14609761057517Q283.97938034229 309.2202309048108 335.35545365827045 308.0032407798154L335.35545365827045 308.0032407798154L329.67616640829215 293.7572975519287Q321.2765482906771 300.9637880960188 314.4041334671739 300.9637880960188L314.4041334671739 300.9637880960188Q308.1998700848447 300.9637880960188 308.1998700848447 294.2584111328091L308.1998700848447 294.2584111328091Q308.1998700848447 281.73057161079805 322.30263800390856 266.4346761182094L322.30263800390856 266.4346761182094Q322.1356001436151 264.88361027262704 322.0401499377331 263.4279946329267Q321.944699731851 261.97237899322636 321.944699731851 260.5883510079375L321.944699731851 260.5883510079375Q321.944699731851 250.11269091238924 325.9058832759536 242.54826209624164L325.9058832759536 242.54826209624164Q330.89315653328754 232.93165385363125 340.34272691560443 232.93165385363125L340.34272691560443 232.93165385363125Q341.36881662883576 232.93165385363125 342.32331868765567 233.02710405951325Q343.25395819500505 233.09869171392475 344.11301004794296 233.26572957421823L344.11301004794296 233.26572957421823Q348.0741935920455 234.1247814271561 350.1263730185083 239.63703081684096L350.1263730185083 239.63703081684096Q352.01151458467757 244.79134193446836 351.510401003797 248.91956333886438L351.510401003797 248.91956333886438Q361.8190232390519 242.71529995653512 361.8190232390519 233.95774356686263L361.8190232390519 233.95774356686263Q361.8190232390519 230.8794744271685 362.51103723169626 230.8794744271685L362.51103723169626 230.8794744271685Q364.2291409375721 230.8794744271685 364.2291409375721 236.89283739773379L364.2291409375721 236.89283739773379Q364.2291409375721 248.39458720651345 351.15246273173966 254.5749880373722L351.15246273173966 254.5749880373722Q350.1263730185083 263.5234448388087 344.80502404058734 274.16614279465045L344.80502404058734 274.16614279465045Q339.12573679060904 285.6678926034301 332.77829809945683 290.82220372105746L332.77829809945683 290.82220372105746Q334.4964018053326 293.5902596916352 336.8110692979708 297.88551895632463Q339.12573679060904 302.1807782210142 342.22786848177367 308.0032407798154L342.22786848177367 308.0032407798154Q355.97269812878005 308.19414119157943 363.3700890846342 309.55430662539777L363.3700890846342 309.55430662539777Q366.1142825037414 310.07928275774873 366.1142825037414 310.93833461068664L366.1142825037414 310.93833461068664Q366.1142825037414 312.13146218421144 363.3700890846342 312.13146218421144L363.3700890846342 312.13146218421144Q361.8190232390519 312.13146218421144 359.4089055405317 311.96442432391797Q356.99878784201144 311.7973864636245 353.72961829055333 311.43944819156707L353.72961829055333 311.43944819156707Q347.38217959940107 310.93833461068664 343.778934327356 310.93833461068664L343.778934327356 310.93833461068664Q349.62525943762785 322.6071222797597 349.62525943762785 331.1976408091387L349.62525943762785 331.1976408091387Q349.62525943762785 351.64784741935483 323.85370384949084 366.60966719135666L323.85370384949084 366.60966719135666Q301.5183556731055 379.66248284571856 279.6841210776005 379.66248284571856ZM324.87979356272217 264.5495345520401L324.87979356272217 264.5495345520401Q326.597897268598 262.83143084616427 328.91256476123624 261.11332714028845Q331.22723225387443 259.3952234344126 334.1623260847456 257.67711972853687L334.1623260847456 257.67711972853687L344.2800479082364 251.83079461826503Q344.47094832000045 250.4467666329762 344.54253597441186 249.08660119915785Q344.63798618029386 247.70257321386904 344.63798618029386 246.50944564034418L344.63798618029386 246.50944564034418Q344.63798618029386 236.36786126538286 339.8177507832535 236.36786126538286L339.8177507832535 236.36786126538286Q335.6895293788574 236.36786126538286 331.39427011416797 242.71529995653512L331.39427011416797 242.71529995653512Q327.9580627024163 247.70257321386904 326.3354092024225 252.78529667708494Q324.71275570242875 257.84415758883034 324.71275570242875 262.6643929858708L324.71275570242875 262.6643929858708Q324.71275570242875 264.02455841968913 324.87979356272217 264.5495345520401ZM331.39427011416797 287.9109724416568L331.39427011416797 287.9109724416568Q335.5224915185639 284.1406893093183 339.8177507832535 273.30709094171254L339.8177507832535 273.30709094171254Q343.778934327356 262.83143084616427 343.778934327356 256.81806787559896L343.778934327356 256.81806787559896Q331.22723225387443 262.6643929858708 325.0468314230157 268.31981768437856L325.0468314230157 268.31981768437856Q325.7388454156601 272.7821148093616 327.3614989156539 277.697800412284Q329.00801496711824 282.58962346373596 331.39427011416797 287.9109724416568ZM316.2892750333432 295.117462985747L316.2892750333432 295.117462985747Q322.6367137244955 295.117462985747 328.4830388347673 290.4881280004705L328.4830388347673 290.4881280004705Q325.5718075553666 283.2816374563804 324.87979356272217 281.0385576181536L324.87979356272217 281.0385576181536Q324.0207417097843 278.12732633875294 323.4957655774334 275.7172086402328Q322.99465199655293 273.30709094171254 322.6367137244955 271.06401110348577L322.6367137244955 271.06401110348577Q313.02010548188514 283.7827510372608 313.02010548188514 290.15405227988356L313.02010548188514 290.15405227988356Q313.02010548188514 295.117462985747 316.2892750333432 295.117462985747ZM279.517083217307 377.08532728690494L279.517083217307 377.08532728690494Q298.2491861216473 377.08532728690494 319.0334684524504 362.1235075149031L319.0334684524504 362.1235075149031Q341.36881662883576 346.15946058114054 341.36881662883576 328.28640952973814L341.36881662883576 328.28640952973814Q341.36881662883576 322.9650605518172 336.5485812317953 311.1053724709801L336.5485812317953 311.1053724709801Q322.99465199655293 311.7973864636245 311.2065515701273 314.2790918165562Q299.4423136951722 316.7846597209585 289.30072932021085 321.0799189856479L289.30072932021085 321.0799189856479Q263.5291737320739 332.0566926620766 255.46363133504585 353.36595112523065L255.46363133504585 353.36595112523065Q254.27050376152096 356.30104495610186 254.27050376152096 359.21227623550254L254.27050376152096 359.21227623550254Q254.27050376152096 367.63575690458805 263.0280601511935 372.7900680222154L263.0280601511935 372.7900680222154Q270.40158855557706 377.08532728690494 279.517083217307 377.08532728690494ZM396.8731113492123 304.0659197871835L396.8731113492123 304.0659197871835Q392.2199138124653 304.0659197871835 389.6427582536516 299.24568439014297L389.6427582536516 299.24568439014297Q387.5905788271889 295.3083633975109 387.5905788271889 290.15405227988356L387.5905788271889 290.15405227988356Q387.5905788271889 287.57689672106983 388.02010475365785 284.37931482402325Q388.4496306801268 281.2055954784471 389.3086825330647 277.4353123461085L389.3086825330647 277.4353123461085Q378.47508416545895 301.48876422836975 366.9733343566793 301.48876422836975L366.9733343566793 301.48876422836975Q359.9338816728826 301.48876422836975 359.9338816728826 292.3732695666398L359.9338816728826 292.3732695666398Q359.9338816728826 277.76938806669546 374.0127870404759 262.13941685351983L374.0127870404759 262.13941685351983Q388.2825928198333 246.1515073682867 402.3614981874266 246.1515073682867L402.3614981874266 246.1515073682867Q409.0668751506363 246.1515073682867 409.0668751506363 251.99783247855854L409.0668751506363 251.99783247855854Q409.0668751506363 259.22818557411915 399.4502669080259 266.4346761182094L399.4502669080259 266.4346761182094Q394.46299365069206 278.79547777992684 394.46299365069206 291.8721559857594L394.46299365069206 291.8721559857594Q394.46299365069206 301.6558020886632 398.7582529153816 301.6558020886632L398.7582529153816 301.6558020886632Q404.77161588594686 301.6558020886632 419.3754973858912 280.01246790492223L419.3754973858912 280.01246790492223Q420.4015870991225 278.62843991963337 420.92656323147344 278.62843991963337L420.92656323147344 278.62843991963337Q421.427676812354 278.62843991963337 421.427676812354 279.3204539122778L421.427676812354 279.3204539122778Q421.427676812354 280.1795057652157 420.73566281970955 281.0385576181536L420.73566281970955 281.0385576181536Q405.2727294668273 304.0659197871835 396.8731113492123 304.0659197871835ZM367.6653483493237 296.1674152504488L367.6653483493237 296.1674152504488Q378.47508416545895 296.1674152504488 388.6166685404203 272.1139633681877L388.6166685404203 272.1139633681877Q387.2326405551314 272.44803908877464 386.13496318748855 272.7105271549501Q385.01342326837516 272.9730152211256 384.15437141543725 272.9730152211256L384.15437141543725 272.9730152211256Q383.4623574227928 272.9730152211256 383.4623574227928 272.44803908877464L383.4623574227928 272.44803908877464Q383.4623574227928 271.5889872358367 385.8724751213131 270.7299353828988L385.8724751213131 270.7299353828988L391.193824099234 267.62780369173424Q391.5278998198209 264.71657241233356 394.797069371279 260.08723742705706L394.797069371279 260.08723742705706Q398.06623892273717 255.26700203001664 400.97747020213785 255.26700203001664L400.97747020213785 255.26700203001664Q402.02742246683965 255.26700203001664 402.02742246683965 256.81806787559896L402.02742246683965 256.81806787559896Q402.02742246683965 258.0111954491238 401.16837061390174 260.5883510079375L401.16837061390174 260.5883510079375Q403.91256403300895 256.81806787559896 403.91256403300895 253.21482260355387L403.91256403300895 253.21482260355387Q403.91256403300895 249.25363905945133 400.30931876096383 249.25363905945133L400.30931876096383 249.25363905945133Q391.7188002315849 249.25363905945133 377.7830701728145 266.2676382579159L377.7830701728145 266.2676382579159Q363.87120266551466 282.9236991843229 363.87120266551466 292.20623170634633L363.87120266551466 292.20623170634633Q363.87120266551466 296.1674152504488 367.6653483493237 296.1674152504488Z " fill="#021526" transform="matrix(1.0796935631442808,0,0,1.0796935631442806,0,-28.94211889646334)"/><path d="M533.9674600432453 302.8489296621881L533.9674600432453 302.8489296621881Q532.4402567491335 302.8489296621881 532.4402567491335 301.48876422836975L532.4402567491335 301.48876422836975Q532.4402567491335 301.32172636807627 532.511844403545 301.13082595631226Q532.607294609427 300.9637880960188 532.7743324697204 300.62971237543184L532.7743324697204 300.62971237543184L532.7743324697204 300.46267451513836Q532.7743324697204 299.60362266220045 533.2993086020714 298.38663253720506L533.2993086020714 298.38663253720506Q536.210539881472 291.18014199311494 538.4536197196987 278.62843991963337L538.4536197196987 278.62843991963337Q538.9547333005792 275.7172086402328 538.9547333005792 269.8708835299609L538.9547333005792 269.8708835299609Q538.9547333005792 267.81870410349813 538.3581695138168 263.5234448388087Q537.7616057270543 259.22818557411915 537.7616057270543 257.1521435961859L537.7616057270543 257.1521435961859Q537.7616057270543 255.95901602266105 539.1217711608726 255.43403989031012L539.1217711608726 255.43403989031012L546.6861999770204 253.38186046384737Q549.2633555358341 247.53553535357554 555.2767185063992 247.53553535357554L555.2767185063992 247.53553535357554Q557.853874065213 247.53553535357554 556.994822212275 249.5877147800383L556.994822212275 249.5877147800383Q559.0708641902083 248.7286629271004 560.0969539034397 248.22754934621997Q561.1230436166711 247.70257321386904 561.1230436166711 247.70257321386904L561.1230436166711 247.70257321386904Q561.4571193372581 247.70257321386904 561.4571193372581 248.22754934621997L561.4571193372581 248.22754934621997Q561.4571193372581 249.7786151918023 555.9687324990437 252.164870338852L555.9687324990437 252.164870338852Q553.0575012196431 259.0372851623552 549.0008674696585 269.44135760349195Q544.9680962711445 279.84543004462876 539.6467472932236 293.92433541222215L539.6467472932236 293.92433541222215Q544.9680962711445 287.9109724416568 548.833829609365 283.0907370446164Q552.6995629475856 278.2943641990464 555.2767185063992 274.8581567872949L555.2767185063992 274.8581567872949Q557.1618600725685 271.42194937554325 560.4310296240267 266.3392259123274Q563.7001991754848 261.2803650005819 567.9954584401744 254.7420258976657L567.9954584401744 254.7420258976657Q570.4055761386945 251.66375675797156 575.2019489842644 251.66375675797156L575.2019489842644 251.66375675797156Q580.0221843813049 251.66375675797156 580.0221843813049 255.43403989031012L580.0221843813049 255.43403989031012Q580.0221843813049 256.98510573589243 576.0610008372023 266.9596522505602L576.0610008372023 266.9596522505602Q571.2646279916324 278.79547777992684 571.2646279916324 279.4874917725713L571.2646279916324 279.4874917725713Q575.7269251166153 275.5501707799392 579.7596963151294 270.6344851770168Q583.7924675136435 265.74266212556495 587.419575337159 260.08723742705706L587.419575337159 260.08723742705706Q588.087726778333 258.8702473020617 588.7797407709774 258.8702473020617L588.7797407709774 258.8702473020617Q589.3047169033283 258.8702473020617 589.3047169033283 259.7292991549996L589.3047169033283 259.7292991549996Q589.3047169033283 261.97237899322636 580.1892222415984 274.5002185152374L580.1892222415984 274.5002185152374Q577.4450288224912 278.2943641990464 574.5337975430905 282.064647331385Q571.5987037122194 285.858793015194 568.6874724328187 289.6290761475326L568.6874724328187 289.6290761475326Q568.1624963004679 290.4881280004705 566.444392594592 290.4881280004705L566.444392594592 290.4881280004705Q565.2512650210672 290.4881280004705 565.2512650210672 289.29500042694565L565.2512650210672 289.29500042694565Q565.2512650210672 288.43594857400774 565.7523786019476 286.19286873578096Q566.2773547342986 283.9497888975543 567.1364065872365 280.1795057652157L567.1364065872365 280.1795057652157L569.8806000063436 269.34590739760995Q570.572613998988 266.2676382579159 570.906689719575 263.5234448388087Q571.2646279916324 260.75538886823097 571.2646279916324 258.36913372118124L571.2646279916324 258.36913372118124Q565.2512650210672 267.46076583144077 555.4437563666928 278.79547777992684L555.4437563666928 278.79547777992684L538.4536197196987 298.2195946769116Q537.9286435873478 302.8489296621881 533.9674600432453 302.8489296621881ZM608.7049712488425 300.27177410337436L608.7049712488425 300.27177410337436Q599.2554008665256 300.27177410337436 593.9340518886048 287.7439345813633L593.9340518886048 287.7439345813633Q589.6387926239153 278.12732633875294 589.6387926239153 267.2937279711472L589.6387926239153 267.2937279711472Q589.6387926239153 260.94628927999497 591.0228206092041 257.84415758883034L591.0228206092041 257.84415758883034Q592.0489103224355 255.95901602266105 596.344169587125 255.95901602266105L596.344169587125 255.95901602266105Q598.0622732930008 255.95901602266105 598.3963490135877 256.81806787559896L598.3963490135877 256.81806787559896Q598.0622732930008 256.81806787559896 597.5372971606498 260.421313147644L597.5372971606498 260.421313147644Q597.0361835797694 263.6904826991022 597.0361835797694 267.62780369173424L597.0361835797694 267.62780369173424Q597.0361835797694 276.4092226328771 599.9474148591701 285.50085474313664L599.9474148591701 285.50085474313664Q604.0756362635661 297.3605428239737 611.4730272194203 297.3605428239737L611.4730272194203 297.3605428239737Q612.6661547929451 297.3605428239737 614.6467465649964 296.59694117691777Q616.6273383370476 295.80947697839144 617.4863901899855 295.80947697839144L617.4863901899855 295.80947697839144Q618.3454420429234 295.80947697839144 618.3454420429234 296.3344531107423L618.3454420429234 296.3344531107423Q618.3454420429234 297.6946185445606 614.3842584988208 299.0786465298495L614.3842584988208 299.0786465298495Q610.7810132267758 300.27177410337436 608.7049712488425 300.27177410337436ZM541.6989267196864 266.9596522505602L541.6989267196864 266.9596522505602Q542.5579785726243 264.02455841968913 543.6079308373262 261.2803650005819Q544.6340205505576 258.5361715814747 545.4930724034955 256.29309174324806L545.4930724034955 256.29309174324806L540.8398748667485 257.84415758883034Q541.1978131388059 260.08723742705706 541.4603012049814 262.3064547138133Q541.6989267196864 264.5495345520401 541.6989267196864 266.9596522505602ZM619.2044938958613 302.34781608130766L619.2044938958613 302.34781608130766Q617.2954897782215 302.34781608130766 617.2954897782215 301.32172636807627L617.2954897782215 301.32172636807627Q617.2954897782215 295.117462985747 622.2827630355555 285.50085474313664L622.2827630355555 285.50085474313664Q628.4631638664142 273.474128802006 629.5131161311161 269.8708835299609L629.5131161311161 269.8708835299609Q631.231219836992 264.02455841968913 631.231219836992 255.43403989031012L631.231219836992 255.43403989031012Q630.706243704641 257.1521435961859 628.9881399987652 260.421313147644Q627.2700362928894 263.6904826991022 624.3588050134888 268.67775595643604L624.3588050134888 268.67775595643604Q621.590749042911 273.474128802006 619.4431194105663 276.6478481475822Q617.2954897782215 279.84543004462876 615.9353243444032 281.73057161079805L615.9353243444032 281.73057161079805Q615.9353243444032 281.8976094710915 615.5773860723457 281.8976094710915L615.5773860723457 281.8976094710915Q614.7183342194078 281.8976094710915 614.7183342194078 281.2055954784471L614.7183342194078 281.2055954784471L619.8726453370352 272.44803908877464Q624.1679046017248 265.2415485446845 626.7450601605385 259.13273536823715Q629.3222157193521 253.0239221917899 630.5392058443475 248.22754934621997L630.5392058443475 248.22754934621997Q631.5652955575789 243.76525222123698 634.6674272487435 243.76525222123698L634.6674272487435 243.76525222123698Q637.7456963884376 243.76525222123698 637.7456963884376 250.97174276532715L637.7456963884376 250.97174276532715Q637.7456963884376 254.7420258976657 636.7196066752063 260.421313147644Q635.6935169619749 266.1006003976223 633.2833992634547 273.474128802006L633.2833992634547 273.474128802006L626.0769087193645 295.9765148386849Q632.4243474105168 291.18014199311494 638.3422601752001 284.9997411622562Q644.2840354913538 278.79547777992684 649.0804083369238 270.7299353828988L649.0804083369238 270.7299353828988L650.1303606016257 269.011831677023Q652.0155021677949 256.46012960354153 654.7596955869021 253.21482260355387L654.7596955869021 253.21482260355387Q655.4517095795466 251.99783247855854 657.8618272780668 251.99783247855854L657.8618272780668 251.99783247855854Q661.4650725501119 251.99783247855854 661.4650725501119 253.8829740447278L661.4650725501119 253.8829740447278Q661.4650725501119 259.0372851623552 658.1959029986538 263.3325444270447L658.1959029986538 263.3325444270447Q654.4256198663152 276.2183222211132 654.4256198663152 288.43594857400774L654.4256198663152 288.43594857400774Q654.4256198663152 296.66852883132924 659.5799309839426 296.66852883132924L659.5799309839426 296.66852883132924Q662.1570865427562 296.66852883132924 665.5932939545079 293.7572975519287L665.5932939545079 293.7572975519287Q669.0295013662595 290.82220372105746 668.8386009544955 290.82220372105746L668.8386009544955 290.82220372105746Q669.3635770868465 290.82220372105746 669.3635770868465 291.8721559857594L669.3635770868465 291.8721559857594L669.3635770868465 292.20623170634633Q663.5172519765747 300.46267451513836 656.3107614324845 300.46267451513836L656.3107614324845 300.46267451513836Q648.9133704766303 300.46267451513836 648.9133704766303 287.7439345813633L648.9133704766303 287.7439345813633Q648.9133704766303 284.64180289019873 649.1758585428058 281.0385576181536Q649.4383466089813 277.4353123461085 649.7724223295683 273.14005308141907L649.7724223295683 273.14005308141907Q643.2579457781225 285.50085474313664 628.2961260061207 297.1935049636802L628.2961260061207 297.1935049636802Q627.4370741531828 297.88551895632463 625.8860083076006 299.0786465298495Q624.3588050134888 300.27177410337436 622.449800895849 301.6558020886632L622.449800895849 301.6558020886632Q621.590749042911 302.34781608130766 619.2044938958613 302.34781608130766ZM688.0956799911868 243.76525222123698L688.0956799911868 243.76525222123698Q684.6594725794351 243.76525222123698 684.6594725794351 240.13814439772142L684.6594725794351 240.13814439772142Q684.6594725794351 238.42004069184563 686.8071022117799 235.9383353389139Q688.9547318441247 233.4566299859822 690.6728355500004 232.5975781330443L690.6728355500004 232.5975781330443Q696.8532363808592 229.66248430217314 698.0463639543841 229.66248430217314L698.0463639543841 229.66248430217314Q698.5713400867351 229.66248430217314 698.5713400867351 230.0204225742306L698.5713400867351 230.0204225742306Q698.5713400867351 230.52153615511102 694.6101565426325 234.98383328009402L694.6101565426325 234.98383328009402Q694.2760808220455 235.34177155215147 692.0330009838189 240.3290448094854L692.0330009838189 240.3290448094854Q690.1478594176496 243.76525222123698 688.0956799911868 243.76525222123698ZM677.787057755932 298.911608669556L677.787057755932 298.911608669556Q669.0295013662595 298.911608669556 669.0295013662595 290.15405227988356L669.0295013662595 290.15405227988356Q669.0295013662595 283.61571317696735 672.465708778011 273.6411666622995L672.465708778011 273.6411666622995L669.3635770868465 278.4614020593399Q667.1204972486197 282.2316851916785 666.2614453956818 282.2316851916785L666.2614453956818 282.2316851916785Q665.9273696750948 282.2316851916785 665.9273696750948 281.73057161079805L665.9273696750948 281.73057161079805Q665.9273696750948 280.3465436255092 666.9534593883262 279.1534160519843L666.9534593883262 279.1534160519843Q671.0816807927223 273.474128802006 676.0689540500562 262.83143084616427L676.0689540500562 262.83143084616427Q676.5700676309366 261.4474028608754 677.5245696897565 259.3952234344126Q678.4790717485764 257.31918145647944 679.8392371823948 254.7420258976657L679.8392371823948 254.7420258976657Q680.6982890353327 253.21482260355387 684.1344964470843 253.21482260355387L684.1344964470843 253.21482260355387Q687.0695902779553 253.21482260355387 687.0695902779553 254.9329263094297L687.0695902779553 254.9329263094297Q687.0695902779553 256.81806787559896 685.3514865720796 260.08723742705706L685.3514865720796 260.08723742705706Q683.8004207264972 263.5234448388087 682.4163927412085 264.02455841968913L682.4163927412085 264.02455841968913Q673.4917984912424 281.8976094710915 673.4917984912424 290.32109014017703L673.4917984912424 290.32109014017703Q673.4917984912424 295.9765148386849 677.262081623581 295.9765148386849L677.262081623581 295.9765148386849Q683.4424824544399 295.9765148386849 690.839873410294 287.0519205887189L690.839873410294 287.0519205887189Q698.5713400867351 278.12732633875294 698.4043022264416 278.12732633875294L698.4043022264416 278.12732633875294Q698.7383779470285 278.12732633875294 698.7383779470285 278.62843991963337L698.7383779470285 278.62843991963337Q698.7383779470285 278.79547777992684 698.4043022264416 279.84543004462876L698.4043022264416 279.84543004462876Q696.8532363808592 282.58962346373596 694.538568888221 285.42926708872506Q692.2239013955827 288.24504816224373 689.2888075647116 291.3471798534084L689.2888075647116 291.3471798534084Q681.724378748564 298.911608669556 677.787057755932 298.911608669556ZM668.671563094202 379.66248284571856L668.671563094202 379.66248284571856Q636.8866445354997 379.66248284571856 636.8866445354997 360.5963042207913L636.8866445354997 360.5963042207913Q636.8866445354997 359.379314095796 636.9820947413817 358.25777417668263Q637.0536823957932 357.16009680903977 637.2445828075572 355.9431066840444L637.2445828075572 355.9431066840444Q638.6047482413755 349.4286301325986 646.5032527781101 340.14609761057517L646.5032527781101 340.14609761057517Q672.9668223588915 309.2202309048108 724.342895674872 308.0032407798154L724.342895674872 308.0032407798154L718.6636084248937 293.7572975519287Q710.2639903072786 300.9637880960188 703.3915754837755 300.9637880960188L703.3915754837755 300.9637880960188Q697.1873121014462 300.9637880960188 697.1873121014462 294.2584111328091L697.1873121014462 294.2584111328091Q697.1873121014462 281.73057161079805 711.29008002051 266.4346761182094L711.29008002051 266.4346761182094Q711.1230421602165 264.88361027262704 711.0275919543346 263.4279946329267Q710.9321417484525 261.97237899322636 710.9321417484525 260.5883510079375L710.9321417484525 260.5883510079375Q710.9321417484525 250.11269091238924 714.8933252925551 242.54826209624164L714.8933252925551 242.54826209624164Q719.8805985498891 232.93165385363125 729.330168932206 232.93165385363125L729.330168932206 232.93165385363125Q730.3562586454373 232.93165385363125 731.3107607042572 233.02710405951325Q732.2414002116066 233.09869171392475 733.1004520645445 233.26572957421823L733.1004520645445 233.26572957421823Q737.0616356086471 234.1247814271561 739.1138150351098 239.63703081684096L739.1138150351098 239.63703081684096Q740.9989566012791 244.79134193446836 740.4978430203986 248.91956333886438L740.4978430203986 248.91956333886438Q750.8064652556534 242.71529995653512 750.8064652556534 233.95774356686263L750.8064652556534 233.95774356686263Q750.8064652556534 230.8794744271685 751.4984792482978 230.8794744271685L751.4984792482978 230.8794744271685Q753.2165829541736 230.8794744271685 753.2165829541736 236.89283739773379L753.2165829541736 236.89283739773379Q753.2165829541736 248.39458720651345 740.1399047483412 254.5749880373722L740.1399047483412 254.5749880373722Q739.1138150351098 263.5234448388087 733.7924660571889 274.16614279465045L733.7924660571889 274.16614279465045Q728.1131788072106 285.6678926034301 721.7657401160584 290.82220372105746L721.7657401160584 290.82220372105746Q723.4838438219341 293.5902596916352 725.7985113145724 297.88551895632463Q728.1131788072106 302.1807782210142 731.2153104983752 308.0032407798154L731.2153104983752 308.0032407798154Q744.9601401453816 308.19414119157943 752.3575311012357 309.55430662539777L752.3575311012357 309.55430662539777Q755.1017245203429 310.07928275774873 755.1017245203429 310.93833461068664L755.1017245203429 310.93833461068664Q755.1017245203429 312.13146218421144 752.3575311012357 312.13146218421144L752.3575311012357 312.13146218421144Q750.8064652556534 312.13146218421144 748.3963475571331 311.96442432391797Q745.986229858613 311.7973864636245 742.7170603071548 311.43944819156707L742.7170603071548 311.43944819156707Q736.3696216160026 310.93833461068664 732.7663763439575 310.93833461068664L732.7663763439575 310.93833461068664Q738.6127014542294 322.6071222797597 738.6127014542294 331.1976408091387L738.6127014542294 331.1976408091387Q738.6127014542294 351.64784741935483 712.8411458660923 366.60966719135666L712.8411458660923 366.60966719135666Q690.5057976897069 379.66248284571856 668.671563094202 379.66248284571856ZM713.8672355793237 264.5495345520401L713.8672355793237 264.5495345520401Q715.5853392851996 262.83143084616427 717.9000067778378 261.11332714028845Q720.2146742704759 259.3952234344126 723.1497681013471 257.67711972853687L723.1497681013471 257.67711972853687L733.267489924838 251.83079461826503Q733.458390336602 250.4467666329762 733.5299779910134 249.08660119915785Q733.6254281968954 247.70257321386904 733.6254281968954 246.50944564034418L733.6254281968954 246.50944564034418Q733.6254281968954 236.36786126538286 728.805192799855 236.36786126538286L728.805192799855 236.36786126538286Q724.676971395459 236.36786126538286 720.3817121307695 242.71529995653512L720.3817121307695 242.71529995653512Q716.9455047190179 247.70257321386904 715.3228512190241 252.78529667708494Q713.7001977190303 257.84415758883034 713.7001977190303 262.6643929858708L713.7001977190303 262.6643929858708Q713.7001977190303 264.02455841968913 713.8672355793237 264.5495345520401ZM720.3817121307695 287.9109724416568L720.3817121307695 287.9109724416568Q724.5099335351655 284.1406893093183 728.805192799855 273.30709094171254L728.805192799855 273.30709094171254Q732.7663763439575 262.83143084616427 732.7663763439575 256.81806787559896L732.7663763439575 256.81806787559896Q720.2146742704759 262.6643929858708 714.0342734396172 268.31981768437856L714.0342734396172 268.31981768437856Q714.7262874322616 272.7821148093616 716.3489409322555 277.697800412284Q717.9954569837198 282.58962346373596 720.3817121307695 287.9109724416568ZM705.2767170499448 295.117462985747L705.2767170499448 295.117462985747Q711.624155741097 295.117462985747 717.4704808513688 290.4881280004705L717.4704808513688 290.4881280004705Q714.5592495719682 283.2816374563804 713.8672355793237 281.0385576181536L713.8672355793237 281.0385576181536Q713.0081837263858 278.12732633875294 712.4832075940349 275.7172086402328Q711.9820940131544 273.30709094171254 711.624155741097 271.06401110348577L711.624155741097 271.06401110348577Q702.0075474984867 283.7827510372608 702.0075474984867 290.15405227988356L702.0075474984867 290.15405227988356Q702.0075474984867 295.117462985747 705.2767170499448 295.117462985747ZM668.5045252339086 377.08532728690494L668.5045252339086 377.08532728690494Q687.2366281382489 377.08532728690494 708.020910469052 362.1235075149031L708.020910469052 362.1235075149031Q730.3562586454373 346.15946058114054 730.3562586454373 328.28640952973814L730.3562586454373 328.28640952973814Q730.3562586454373 322.9650605518172 725.5360232483969 311.1053724709801L725.5360232483969 311.1053724709801Q711.9820940131544 311.7973864636245 700.1939935867288 314.2790918165562Q688.4297557117737 316.7846597209585 678.2881713368124 321.0799189856479L678.2881713368124 321.0799189856479Q652.5166157486755 332.0566926620766 644.4510733516474 353.36595112523065L644.4510733516474 353.36595112523065Q643.2579457781225 356.30104495610186 643.2579457781225 359.21227623550254L643.2579457781225 359.21227623550254Q643.2579457781225 367.63575690458805 652.0155021677949 372.7900680222154L652.0155021677949 372.7900680222154Q659.3890305721786 377.08532728690494 668.5045252339086 377.08532728690494ZM785.8605533658138 304.0659197871835L785.8605533658138 304.0659197871835Q781.2073558290668 304.0659197871835 778.6302002702531 299.24568439014297L778.6302002702531 299.24568439014297Q776.5780208437905 295.3083633975109 776.5780208437905 290.15405227988356L776.5780208437905 290.15405227988356Q776.5780208437905 287.57689672106983 777.0075467702593 284.37931482402325Q777.4370726967284 281.2055954784471 778.2961245496663 277.4353123461085L778.2961245496663 277.4353123461085Q767.4625261820605 301.48876422836975 755.9607763732809 301.48876422836975L755.9607763732809 301.48876422836975Q748.9213236894841 301.48876422836975 748.9213236894841 292.3732695666398L748.9213236894841 292.3732695666398Q748.9213236894841 277.76938806669546 763.0002290570775 262.13941685351983L763.0002290570775 262.13941685351983Q777.2700348364349 246.1515073682867 791.3489402040282 246.1515073682867L791.3489402040282 246.1515073682867Q798.0543171672379 246.1515073682867 798.0543171672379 251.99783247855854L798.0543171672379 251.99783247855854Q798.0543171672379 259.22818557411915 788.4377089246275 266.4346761182094L788.4377089246275 266.4346761182094Q783.4504356672936 278.79547777992684 783.4504356672936 291.8721559857594L783.4504356672936 291.8721559857594Q783.4504356672936 301.6558020886632 787.745694931983 301.6558020886632L787.745694931983 301.6558020886632Q793.7590579025484 301.6558020886632 808.3629394024927 280.01246790492223L808.3629394024927 280.01246790492223Q809.389029115724 278.62843991963337 809.914005248075 278.62843991963337L809.914005248075 278.62843991963337Q810.4151188289554 278.62843991963337 810.4151188289554 279.3204539122778L810.4151188289554 279.3204539122778Q810.4151188289554 280.1795057652157 809.723104836311 281.0385576181536L809.723104836311 281.0385576181536Q794.2601714834288 304.0659197871835 785.8605533658138 304.0659197871835ZM756.6527903659253 296.1674152504488L756.6527903659253 296.1674152504488Q767.4625261820605 296.1674152504488 777.6041105570218 272.1139633681877L777.6041105570218 272.1139633681877Q776.220082571733 272.44803908877464 775.12240520409 272.7105271549501Q774.0008652849767 272.9730152211256 773.1418134320388 272.9730152211256L773.1418134320388 272.9730152211256Q772.4497994393944 272.9730152211256 772.4497994393944 272.44803908877464L772.4497994393944 272.44803908877464Q772.4497994393944 271.5889872358367 774.8599171379146 270.7299353828988L774.8599171379146 270.7299353828988L780.1812661158356 267.62780369173424Q780.5153418364224 264.71657241233356 783.7845113878806 260.08723742705706L783.7845113878806 260.08723742705706Q787.0536809393386 255.26700203001664 789.9649122187393 255.26700203001664L789.9649122187393 255.26700203001664Q791.0148644834412 255.26700203001664 791.0148644834412 256.81806787559896L791.0148644834412 256.81806787559896Q791.0148644834412 258.0111954491238 790.1558126305033 260.5883510079375L790.1558126305033 260.5883510079375Q792.9000060496105 256.81806787559896 792.9000060496105 253.21482260355387L792.9000060496105 253.21482260355387Q792.9000060496105 249.25363905945133 789.2967607775654 249.25363905945133L789.2967607775654 249.25363905945133Q780.7062422481864 249.25363905945133 766.7705121894161 266.2676382579159L766.7705121894161 266.2676382579159Q752.8586446821162 282.9236991843229 752.8586446821162 292.20623170634633L752.8586446821162 292.20623170634633Q752.8586446821162 296.1674152504488 756.6527903659253 296.1674152504488Z " fill="#021526" transform="matrix(1.0796935631442808,0,0,1.0796935631442806,0,-28.94211889646334)"/></g></svg>